<?xml version="1.0" encoding="UTF-8"?>
<svg xmlns="http://www.w3.org/2000/svg" id="Layer_1" data-name="Layer 1" viewBox="0 0 24 24">
  <path d="m20.5,15c-1.93,0-3.5,1.57-3.5,3.5s1.57,3.5,3.5,3.5,3.5-1.57,3.5-3.5-1.57-3.5-3.5-3.5Zm0,6c-1.379,0-2.5-1.122-2.5-2.5s1.121-2.5,2.5-2.5,2.5,1.122,2.5,2.5-1.121,2.5-2.5,2.5Zm3-8c.276,0,.5-.224.5-.5s-.224-.5-.5-.5h-3c-.297,0-.591.028-.882.068l-1.642-4.224c.238.1.5.156.774.156h.25c.552,0,1-.449,1-1v-2c0-.551-.448-1-1-1h-.25c-.808,0-1.502.484-1.817,1.175-.542-1.322-1.803-2.175-3.235-2.175h-2.198c-.276,0-.5.224-.5.5s.224.5.5.5h2.198c1.038,0,1.953.626,2.33,1.594l2.601,6.689c-1.129.341-2.161.982-2.971,1.882l-1.342,1.592c-.627.744-1.526,1.189-2.491,1.239l-2.581-5.898c-.557-1.274-1.815-2.097-3.206-2.097h-2.538c-1.93,0-3.5,1.57-3.5,3.5v2c0,1.433.868,2.665,2.105,3.206-.062.261-.105.526-.105.794,0,1.93,1.57,3.5,3.5,3.5s3.5-1.57,3.5-3.5c0-.168-.019-.334-.043-.5h2.684c1.329,0,2.583-.583,3.439-1.6l1.332-1.58c1.041-1.157,2.531-1.821,4.088-1.821h3Zm-4.75-8h.25v2h-.25c-.552,0-1-.449-1-1s.448-1,1-1Zm-10.75,13.5c0,1.378-1.121,2.5-2.5,2.5s-2.5-1.122-2.5-2.5c0-.183.028-.364.069-.544.143.018.284.044.431.044h4.443c.034.165.057.332.057.5Zm-4.5-1.5c-1.379,0-2.5-1.122-2.5-2.5v-2c0-1.378,1.121-2.5,2.5-2.5h2.538c.993,0,1.892.588,2.29,1.498l2.407,5.502H3.5Z"/>
</svg>
